FFmpeg version SVN-r25716, Copyright (c) 2000-2010 the FFmpeg developers  built on Nov 10 2010 12:23:18 with gcc 4.1.2 20080704 (Red Hat 4.1.2-48)  configuration: --enable-libmp3lame --enable-shared --disable-mmx --arch=x86_64  libavutil     50.33. 0 / 50.33. 0  libavcore      0.12. 1 /  0.12. 1  libavcodec    52.94. 4 / 52.94. 4  libavformat   52.84. 0 / 52.84. 0  libavdevice   52. 2. 2 / 52. 2. 2  libavfilter    1.59. 0 /  1.59. 0  libswscale     0.12. 0 /  0.12. 0Seems stream 0 codec frame rate differs from container frame rate: 1200.00 (1200/1) -> 33.33 (100/3)Input #0, mov,mp4,m4a,3gp,3g2,mj2, from '/RAID10/data/converted_video_files/8104.mov':  Metadata:    major_brand     : qt      minor_version   : 537199360    compatible_brands: qt    Duration: 00:00:09.92, start: 0.000000, bitrate: 991 kb/s    Stream #0.0(eng): Video: h264, yuv420p, 230x510, 986 kb/s, 33.25 fps, 33.33 tbr, 600 tbn, 1200 tbc[buffer @ 0x1bf10880] w:230 h:510 pixfmt:yuv420pOutput #0, flv, to '/RAID10/data/converted_video_files/8104.flv':  Metadata:    encoder         : Lavf52.84.0    Stream #0.0(eng): Video: flv, yuv420p, 230x510, q=2-31, 600 kb/s, 1k tbn, 24 tbcStream mapping:  Stream #0.0 -> #0.0Press [q] to stop encodingframe=   69 fps=  0 q=3.7 size=     295kB time=2.88 bitrate= 841.5kbits/s dup=0 drop=26    frame=  143 fps=141 q=4.1 size=     547kB time=5.96 bitrate= 751.9kbits/s dup=0 drop=54    frame=  239 fps=166 q=2.0 Lsize=     724kB time=9.96 bitrate= 595.3kbits/s dup=0 drop=91    video:720kB audio:0kB global headers:0kB muxing overhead 0.547398%